{"title":"[HYD] Gullu Dada 3 2013 DVDRIP mp4 (IcTv) - Hindi","uid":8184563,"size":345502044,"categoryP":"video","categoryS":"movies","magnet":"?xt=urn:btih:64c457d545eafc1a52cb8e4b1a7220e62e4c4ff3&amp;dn=%5BHYD%5D+Gullu+Dada+3+2013+DVDRIP+mp4+%28IcTv%29+-+Hindi&amp;tr=udp%3A%2F%2Ftracker.openbittorrent.com%3A80&amp;tr=udp%3A%2F%2Fopen.demonii.com%3A1337&amp;tr=udp%3A%2F%2Ftracker.coppersurfer.tk%3A6969&amp;tr=udp%3A%2F%2Fexodus.desync.com%3A6969","seeders":1,"leechers":1,"uploader":"SJonam","files":1,"time":1361703751,"description":" &lt;a href=&quot;http://desibbrg.org/images/66952052392581364616.gif&quot; rel=&quot;nofollow&quot; target=&quot;_NEW&quot;&gt;http://desibbrg.org/images/66952052392581364616.gif&lt;/a&gt; &lt;a href=&quot;\nhttp://desibbrg.org/images/08632953307803923570.jpg&quot; rel=&quot;nofollow&quot; target=&quot;_NEW&quot;&gt;\nhttp://desibbrg.org/images/08632953307803923570.jpg&lt;/a&gt; &lt;a href=&quot;\nhttp://desibbrg.org/images/95694094606600999716.png&quot; rel=&quot;nofollow&quot; target=&quot;_NEW&quot;&gt;\nhttp://desibbrg.org/images/95694094606600999716.png&lt;/a&gt; &lt;a href=&quot;\nhttp://desibbrg.org/images/83330286292235527475.png&quot; rel=&quot;nofollow&quot; target=&quot;_NEW&quot;&gt;\nhttp://desibbrg.org/images/83330286292235527475.png&lt;/a&gt; &lt;a href=&quot;\nhttp://desibbrg.org/images/67774933072929949712.png&quot; rel=&quot;nofollow&quot; target=&quot;_NEW&quot;&gt;\nhttp://desibbrg.org/images/67774933072929949712.png&lt;/a&gt; &lt;a href=&quot;\nhttp://desibbrg.org/images/73595506769940033862.png&quot; rel=&quot;nofollow&quot; target=&quot;_NEW&quot;&gt;\nhttp://desibbrg.org/images/73595506769940033862.png&lt;/a&gt;\n\nInfo - \nDIRECTED BY:ABRAR KHAN\nPRODUCED BY:ADNAN SAJID KHAN\nWRITTEN BY: SALMAN HAIDER:\nMUSIC:KHALID HAMEED:\nGullu dada 3 is the sequel of gullu dada returns hyderabadi comey movie.its trailer has been launched and release date has not been updated.the movie casting is same as the previous gullu dada returns had but with little amendmend.some new faces are seen in the movie.\n\nMedia Info - \nVideo\nID : 1\nFormat : AVC\nFormat/Info : Advanced Video Codec\nFormat profile : &lt;a class=&quot;__cf_email__&quot; href=&quot;/cdn-cgi/l/email-protection&quot; data-cfemail=&quot;d09db1b9be909ce1fee3&quot;&gt;[email&amp;#160;protected]&lt;/a&gt;&lt;script cf-hash='f9e31' type=&quot;text/javascript&quot;&gt;\n/* &lt;![CDATA[ */!function(){try{var t=&quot;currentScript&quot;in document?document.currentScript:function(){for(var t=document.getElementsByTagName(&quot;script&quot;),e=t.length;e--;)if(t[e].getAttribute(&quot;cf-hash&quot;))return t[e]}();if(t&amp;&amp;t.previousSibling){var e,r,n,i,c=t.previousSibling,a=c.getAttribute(&quot;data-cfemail&quot;);if(a){for(e=&quot;&quot;,r=parseInt(a.substr(0,2),16),n=2;a.length-n;n+=2)i=parseInt(a.substr(n,2),16)^r,e+=String.fromCharCode(i);e=document.createTextNode(e),c.parentNode.replaceChild(e,c)}}}catch(u){}}();/* ]]&gt; */&lt;/script&gt;\nFormat settings, CABAC : Yes\nFormat settings, ReFrames : 4 frames\nCodec ID : avc1\nCodec ID/Info : Advanced Video Coding\nDuration : 1h 44mn\nBit rate mode : Variable\nBit rate : 274 Kbps\nWidth : 352 pixels\nHeight : 152 pixels\nDisplay aspect ratio : 2.35:1\nFrame rate mode : Variable\nFrame rate : 29.970 fps\nMinimum frame rate : 29.412 fps\nMaximum frame rate : 30.303 fps\nColor space : YUV\nChroma subsampling : 4:2:0\nBit depth : 8 bits\nScan type : Progressive\nBits/(Pixel*Frame) : 0.171\nStream size : 205 MiB (62%)\nWriting library : x264 core 120\n\nAudio\nID : 2\nFormat : AAC\nFormat/Info : Advanced Audio Codec\nFormat profile : LC\nCodec ID : 40\nDuration : 1h 44mn\nBit rate mode : Variable\nBit rate : 160 Kbps\nMaximum bit rate : 313 Kbps\nChannel(s) : 2 channels\nChannel positions : Front: L R\nSampling rate : 44.1 KHz\nCompression mode : Lossy\nStream size : 120 MiB (36%)\nMaterial_Duration : 6281648\nMaterial_StreamSize : 125625073\n\nRipper : lottery\n\nSeeding 24x7... Extreme Seeding...\n\n\nEnjoy!\n","torrent":{"xt":"urn:btih:64c457d545eafc1a52cb8e4b1a7220e62e4c4ff3","amp;dn":"%5BHYD%5D+Gullu+Dada+3+2013+DVDRIP+mp4+%28IcTv%29+-+Hindi","amp;tr":["udp%3A%2F%2Ftracker.openbittorrent.com%3A80","udp%3A%2F%2Fopen.demonii.com%3A1337","udp%3A%2F%2Ftracker.coppersurfer.tk%3A6969","udp%3A%2F%2Fexodus.desync.com%3A6969"],"infoHash":"64c457d545eafc1a52cb8e4b1a7220e62e4c4ff3","infoHashBuffer":{"type":"Buffer","data":[100,196,87,213,69,234,252,26,82,203,142,75,26,114,32,230,46,76,79,243]},"announce":[],"urlList":[]}}